<?xml version="1.0" encoding="UTF-8" standalone="no"?>
<!-- Created with Inkscape (http://www.inkscape.org/) -->

<svg
   width="209.90277mm"
   height="148.16667mm"
   viewBox="0 0 209.90277 148.16667"
   version="1.1"
   id="svg1"
   xml:space="preserve"
   xmlns="http://www.w3.org/2000/svg"
   xmlns:svg="http://www.w3.org/2000/svg"><defs
     id="defs1"><clipPath
       clipPathUnits="userSpaceOnUse"
       id="clipPath74"><path
         d="M 0,645 H 4960 V 2850 H 0 V 645"
         id="path74" /></clipPath><clipPath
       clipPathUnits="userSpaceOnUse"
       id="clipPath76"><path
         d="M 0,645 H 4960 V 2850 H 0 V 645"
         id="path76" /></clipPath><clipPath
       clipPathUnits="userSpaceOnUse"
       id="clipPath78"><path
         d="M 0,645 H 4960 V 2850 H 0 V 645"
         id="path78" /></clipPath></defs><g
     id="layer-oc1"
     transform="matrix(0.26458333,0,0,0.26458334,7.4899829e-6,0)"><text
       id="text1"
       xml:space="preserve"
       transform="matrix(0.16,0,0,0.16,348.64,253.28)"><tspan
         id="tspan1"
         style="font-variant:normal;font-weight:300;font-size:331.139px;font-family:'Segoe UI';writing-mode:lr-tb;fill:#000000;fill-opacity:1;fill-rule:nonzero;stroke:none"
         x="0"
         y="0">NOWA TAMKA</tspan></text><g
       id="layer-oc2"><path
         id="path2"
         d="m 719,1702 v 601 l 79,16 78,16 78,15 39,6 39,6 39,6 39,4 39,4 38,3 39,3 38,1 h 39 l 38,-1 38,-2 38,-4 38,-5 38,-6 38,-8 37,-8 38,-10 37,-11 37,-11 37,-12 38,-13 37,-13 74,-28 74,-29"
         style="fill:none;stroke:#000000;stroke-width:24;stroke-linecap:round;stroke-linejoin:round;stroke-miterlimit:10;stroke-dasharray:none;stroke-opacity:1"
         transform="matrix(0.16,0,0,-0.16,0,560)" /><path
         id="path3"
         d="M 439,1702 H 2434"
         style="fill:none;stroke:#000000;stroke-width:47;stroke-linecap:round;stroke-linejoin:round;stroke-miterlimit:10;stroke-dasharray:none;stroke-opacity:1"
         transform="matrix(0.16,0,0,-0.16,0,560)" /><path
         id="path4"
         d="M 1940,2222 V 1702"
         style="fill:none;stroke:#000000;stroke-width:24;stroke-linecap:round;stroke-linejoin:round;stroke-miterlimit:10;stroke-dasharray:none;stroke-opacity:1"
         transform="matrix(0.16,0,0,-0.16,0,560)" /><path
         id="path5"
         d="M 926,2344 V 1702"
         style="fill:none;stroke:#000000;stroke-width:9;stroke-linecap:round;stroke-linejoin:round;stroke-miterlimit:10;stroke-dasharray:none;stroke-opacity:1"
         transform="matrix(0.16,0,0,-0.16,0,560)" /><path
         id="path6"
         d="M 1338,2382 V 1702"
         style="fill:none;stroke:#000000;stroke-width:9;stroke-linecap:round;stroke-linejoin:round;stroke-miterlimit:10;stroke-dasharray:none;stroke-opacity:1"
         transform="matrix(0.16,0,0,-0.16,0,560)" /><path
         id="path7"
         d="M 1132,2375 V 1702"
         style="fill:none;stroke:#000000;stroke-width:9;stroke-linecap:round;stroke-linejoin:round;stroke-miterlimit:10;stroke-dasharray:none;stroke-opacity:1"
         transform="matrix(0.16,0,0,-0.16,0,560)" /><path
         id="path8"
         d="M 1545,2354 V 1702"
         style="fill:none;stroke:#000000;stroke-width:9;stroke-linecap:round;stroke-linejoin:round;stroke-miterlimit:10;stroke-dasharray:none;stroke-opacity:1"
         transform="matrix(0.16,0,0,-0.16,0,560)" /><path
         id="path9"
         d="M 1751,2293 V 1702"
         style="fill:none;stroke:#000000;stroke-width:9;stroke-linecap:round;stroke-linejoin:round;stroke-miterlimit:10;stroke-dasharray:none;stroke-opacity:1"
         transform="matrix(0.16,0,0,-0.16,0,560)" /><path
         id="path73"
         d="m 439,1550 31,-11 31,-11 31,-10 15,-5 16,-3 15,-4 16,-2 15,-2 16,-1 h 15 l 16,1 15,2 16,3 15,3 16,4 31,8 31,9 31,8 16,3 16,3 15,3 16,1 16,1 h 16 16 l 16,-1 15,-2 16,-2 16,-2 16,-3 32,-7 31,-9 32,-9 16,-4 15,-4 16,-3 15,-2 8,-1 h 8 l 15,2 15,2 16,5 15,4 15,6 30,12 31,12 15,5 16,4 15,3 16,2 h 15 16 l 16,-2 16,-3 15,-3 16,-4 32,-9 63,-19 16,-5 16,-3 15,-3 16,-2 h 15 l 15,1 16,2 15,4 15,4 15,6 31,10 15,6 16,4 16,4 15,3 16,1 16,1 16,-1 16,-1 16,-2 16,-3 16,-4 15,-4 62,-17 15,-4 16,-3 15,-2 16,-2 16,-1 16,1 15,1 16,2 16,3 16,3 16,4 15,4 31,10 31,10 16,4 15,3 15,2 h 16 l 15,-1 16,-2 15,-3 16,-3 31,-9 31,-9"
         style="fill:none;stroke:#000000;stroke-width:9;stroke-linecap:round;stroke-linejoin:round;stroke-miterlimit:10;stroke-dasharray:none;stroke-opacity:1"
         transform="matrix(0.16,0,0,-0.16,0,560)"
         clip-path="url(#clipPath74)" /><path
         id="path75"
         d="M 2434,1702 H 4430"
         style="fill:none;stroke:#000000;stroke-width:47;stroke-linecap:round;stroke-linejoin:round;stroke-miterlimit:10;stroke-dasharray:none;stroke-opacity:1"
         transform="matrix(0.16,0,0,-0.16,0,560)"
         clip-path="url(#clipPath76)" /><path
         id="path77"
         d="m 2347,1550 31,-11 31,-11 31,-10 15,-5 16,-3 15,-4 16,-2 15,-2 16,-1 h 15 l 16,1 15,2 16,3 15,3 16,4 31,8 31,9 31,8 16,3 16,3 15,3 16,1 16,1 h 16 16 l 15,-1 16,-2 16,-2 16,-2 16,-3 32,-7 31,-9 32,-9 15,-4 16,-4 16,-3 15,-2 8,-1 h 8 l 15,2 15,2 15,5 16,4 15,6 30,12 31,12 15,5 15,4 16,3 15,2 h 16 16 l 16,-2 15,-3 16,-3 16,-4 32,-9 63,-19 16,-5 15,-3 16,-3 15,-2 h 16 l 15,1 16,2 15,4 15,4 15,6 31,10 15,6 16,4 15,4 16,3 16,1 16,1 16,-1 16,-1 16,-2 16,-3 15,-4 16,-4 62,-17 15,-4 16,-3 15,-2 16,-2 16,-1 15,1 16,1 16,2 16,3 16,3 16,4 15,4 31,10 31,10 15,4 16,3 15,2 h 15 l 16,-1 15,-2 16,-3 16,-3 31,-9 31,-9"
         style="fill:none;stroke:#000000;stroke-width:9;stroke-linecap:round;stroke-linejoin:round;stroke-miterlimit:10;stroke-dasharray:none;stroke-opacity:1"
         transform="matrix(0.16,0,0,-0.16,0,560)"
         clip-path="url(#clipPath78)" /></g><g
       id="layer-oc3"><path
         id="path10"
         d="m 719,1102 54,-12"
         style="fill:none;stroke:#000000;stroke-width:9;stroke-linecap:round;stroke-linejoin:round;stroke-miterlimit:10;stroke-dasharray:none;stroke-opacity:1"
         transform="matrix(0.16,0,0,-0.16,0,560)" /><path
         id="path11"
         d="m 809,1083 36,-7"
         style="fill:none;stroke:#000000;stroke-width:9;stroke-linecap:round;stroke-linejoin:round;stroke-miterlimit:10;stroke-dasharray:none;stroke-opacity:1"
         transform="matrix(0.16,0,0,-0.16,0,560)" /><path
         id="path12"
         d="m 882,1069 36,-7"
         style="fill:none;stroke:#000000;stroke-width:9;stroke-linecap:round;stroke-linejoin:round;stroke-miterlimit:10;stroke-dasharray:none;stroke-opacity:1"
         transform="matrix(0.16,0,0,-0.16,0,560)" /><path
         id="path13"
         d="m 954,1055 36,-6"
         style="fill:none;stroke:#000000;stroke-width:9;stroke-linecap:round;stroke-linejoin:round;stroke-miterlimit:10;stroke-dasharray:none;stroke-opacity:1"
         transform="matrix(0.16,0,0,-0.16,0,560)" /><path
         id="path14"
         d="m 1027,1043 h 5 l 31,-5"
         style="fill:none;stroke:#000000;stroke-width:9;stroke-linecap:round;stroke-linejoin:round;stroke-miterlimit:10;stroke-dasharray:none;stroke-opacity:1"
         transform="matrix(0.16,0,0,-0.16,0,560)" /><path
         id="path15"
         d="m 1100,1034 10,-2 26,-2"
         style="fill:none;stroke:#000000;stroke-width:9;stroke-linecap:round;stroke-linejoin:round;stroke-miterlimit:10;stroke-dasharray:none;stroke-opacity:1"
         transform="matrix(0.16,0,0,-0.16,0,560)" /><path
         id="path16"
         d="m 1173,1027 14,-2 23,-1"
         style="fill:none;stroke:#000000;stroke-width:9;stroke-linecap:round;stroke-linejoin:round;stroke-miterlimit:10;stroke-dasharray:none;stroke-opacity:1"
         transform="matrix(0.16,0,0,-0.16,0,560)" /><path
         id="path17"
         d="m 1246,1023 18,-1 h 19"
         style="fill:none;stroke:#000000;stroke-width:9;stroke-linecap:round;stroke-linejoin:round;stroke-miterlimit:10;stroke-dasharray:none;stroke-opacity:1"
         transform="matrix(0.16,0,0,-0.16,0,560)" /><path
         id="path18"
         d="m 1320,1022 21,1 16,1"
         style="fill:none;stroke:#000000;stroke-width:9;stroke-linecap:round;stroke-linejoin:round;stroke-miterlimit:10;stroke-dasharray:none;stroke-opacity:1"
         transform="matrix(0.16,0,0,-0.16,0,560)" /><path
         id="path19"
         d="m 1393,1026 24,3 13,1"
         style="fill:none;stroke:#000000;stroke-width:9;stroke-linecap:round;stroke-linejoin:round;stroke-miterlimit:10;stroke-dasharray:none;stroke-opacity:1"
         transform="matrix(0.16,0,0,-0.16,0,560)" /><path
         id="path20"
         d="m 1466,1035 27,5 10,2"
         style="fill:none;stroke:#000000;stroke-width:9;stroke-linecap:round;stroke-linejoin:round;stroke-miterlimit:10;stroke-dasharray:none;stroke-opacity:1"
         transform="matrix(0.16,0,0,-0.16,0,560)" /><path
         id="path21"
         d="m 1539,1049 29,7 7,2"
         style="fill:none;stroke:#000000;stroke-width:9;stroke-linecap:round;stroke-linejoin:round;stroke-miterlimit:10;stroke-dasharray:none;stroke-opacity:1"
         transform="matrix(0.16,0,0,-0.16,0,560)" /><path
         id="path22"
         d="m 1610,1067 33,9 3,1"
         style="fill:none;stroke:#000000;stroke-width:9;stroke-linecap:round;stroke-linejoin:round;stroke-miterlimit:10;stroke-dasharray:none;stroke-opacity:1"
         transform="matrix(0.16,0,0,-0.16,0,560)" /><path
         id="path23"
         d="m 1681,1088 35,11"
         style="fill:none;stroke:#000000;stroke-width:9;stroke-linecap:round;stroke-linejoin:round;stroke-miterlimit:10;stroke-dasharray:none;stroke-opacity:1"
         transform="matrix(0.16,0,0,-0.16,0,560)" /><path
         id="path24"
         d="m 1750,1111 5,2 30,11"
         style="fill:none;stroke:#000000;stroke-width:9;stroke-linecap:round;stroke-linejoin:round;stroke-miterlimit:10;stroke-dasharray:none;stroke-opacity:1"
         transform="matrix(0.16,0,0,-0.16,0,560)" /><path
         id="path25"
         d="m 1820,1137 34,13"
         style="fill:none;stroke:#000000;stroke-width:9;stroke-linecap:round;stroke-linejoin:round;stroke-miterlimit:10;stroke-dasharray:none;stroke-opacity:1"
         transform="matrix(0.16,0,0,-0.16,0,560)" /><path
         id="path26"
         d="m 1888,1163 52,20"
         style="fill:none;stroke:#000000;stroke-width:9;stroke-linecap:round;stroke-linejoin:round;stroke-miterlimit:10;stroke-dasharray:none;stroke-opacity:1"
         transform="matrix(0.16,0,0,-0.16,0,560)" /><path
         id="path27"
         d="m 719,1514 v -41"
         style="fill:none;stroke:#000000;stroke-width:9;stroke-linecap:round;stroke-linejoin:round;stroke-miterlimit:10;stroke-dasharray:none;stroke-opacity:1"
         transform="matrix(0.16,0,0,-0.16,0,560)" /><path
         id="path28"
         d="m 719,1437 v -37"
         style="fill:none;stroke:#000000;stroke-width:9;stroke-linecap:round;stroke-linejoin:round;stroke-miterlimit:10;stroke-dasharray:none;stroke-opacity:1"
         transform="matrix(0.16,0,0,-0.16,0,560)" /><path
         id="path29"
         d="m 719,1363 v -37"
         style="fill:none;stroke:#000000;stroke-width:9;stroke-linecap:round;stroke-linejoin:round;stroke-miterlimit:10;stroke-dasharray:none;stroke-opacity:1"
         transform="matrix(0.16,0,0,-0.16,0,560)" /><path
         id="path30"
         d="m 719,1289 v -36"
         style="fill:none;stroke:#000000;stroke-width:9;stroke-linecap:round;stroke-linejoin:round;stroke-miterlimit:10;stroke-dasharray:none;stroke-opacity:1"
         transform="matrix(0.16,0,0,-0.16,0,560)" /><path
         id="path31"
         d="m 719,1216 v -37"
         style="fill:none;stroke:#000000;stroke-width:9;stroke-linecap:round;stroke-linejoin:round;stroke-miterlimit:10;stroke-dasharray:none;stroke-opacity:1"
         transform="matrix(0.16,0,0,-0.16,0,560)" /><path
         id="path32"
         d="m 719,1142 v -40"
         style="fill:none;stroke:#000000;stroke-width:9;stroke-linecap:round;stroke-linejoin:round;stroke-miterlimit:10;stroke-dasharray:none;stroke-opacity:1"
         transform="matrix(0.16,0,0,-0.16,0,560)" /><path
         id="path33"
         d="m 1940,1535 v -47"
         style="fill:none;stroke:#000000;stroke-width:9;stroke-linecap:round;stroke-linejoin:round;stroke-miterlimit:10;stroke-dasharray:none;stroke-opacity:1"
         transform="matrix(0.16,0,0,-0.16,0,560)" /><path
         id="path34"
         d="m 1940,1451 v -37"
         style="fill:none;stroke:#000000;stroke-width:9;stroke-linecap:round;stroke-linejoin:round;stroke-miterlimit:10;stroke-dasharray:none;stroke-opacity:1"
         transform="matrix(0.16,0,0,-0.16,0,560)" /><path
         id="path35"
         d="m 1940,1377 v -36"
         style="fill:none;stroke:#000000;stroke-width:9;stroke-linecap:round;stroke-linejoin:round;stroke-miterlimit:10;stroke-dasharray:none;stroke-opacity:1"
         transform="matrix(0.16,0,0,-0.16,0,560)" /><path
         id="path36"
         d="m 1940,1304 v -37"
         style="fill:none;stroke:#000000;stroke-width:9;stroke-linecap:round;stroke-linejoin:round;stroke-miterlimit:10;stroke-dasharray:none;stroke-opacity:1"
         transform="matrix(0.16,0,0,-0.16,0,560)" /><path
         id="path37"
         d="m 1940,1230 v -47"
         style="fill:none;stroke:#000000;stroke-width:9;stroke-linecap:round;stroke-linejoin:round;stroke-miterlimit:10;stroke-dasharray:none;stroke-opacity:1"
         transform="matrix(0.16,0,0,-0.16,0,560)" /><path
         id="path38"
         d="m 926,1550 v -43"
         style="fill:none;stroke:#000000;stroke-width:9;stroke-linecap:round;stroke-linejoin:round;stroke-miterlimit:10;stroke-dasharray:none;stroke-opacity:1"
         transform="matrix(0.16,0,0,-0.16,0,560)" /><path
         id="path39"
         d="m 926,1471 v -37"
         style="fill:none;stroke:#000000;stroke-width:9;stroke-linecap:round;stroke-linejoin:round;stroke-miterlimit:10;stroke-dasharray:none;stroke-opacity:1"
         transform="matrix(0.16,0,0,-0.16,0,560)" /><path
         id="path40"
         d="m 926,1397 v -37"
         style="fill:none;stroke:#000000;stroke-width:9;stroke-linecap:round;stroke-linejoin:round;stroke-miterlimit:10;stroke-dasharray:none;stroke-opacity:1"
         transform="matrix(0.16,0,0,-0.16,0,560)" /><path
         id="path41"
         d="m 926,1323 v -37"
         style="fill:none;stroke:#000000;stroke-width:9;stroke-linecap:round;stroke-linejoin:round;stroke-miterlimit:10;stroke-dasharray:none;stroke-opacity:1"
         transform="matrix(0.16,0,0,-0.16,0,560)" /><path
         id="path42"
         d="m 926,1250 v -37"
         style="fill:none;stroke:#000000;stroke-width:9;stroke-linecap:round;stroke-linejoin:round;stroke-miterlimit:10;stroke-dasharray:none;stroke-opacity:1"
         transform="matrix(0.16,0,0,-0.16,0,560)" /><path
         id="path43"
         d="m 926,1176 v -37"
         style="fill:none;stroke:#000000;stroke-width:9;stroke-linecap:round;stroke-linejoin:round;stroke-miterlimit:10;stroke-dasharray:none;stroke-opacity:1"
         transform="matrix(0.16,0,0,-0.16,0,560)" /><path
         id="path44"
         d="m 926,1102 v -42"
         style="fill:none;stroke:#000000;stroke-width:9;stroke-linecap:round;stroke-linejoin:round;stroke-miterlimit:10;stroke-dasharray:none;stroke-opacity:1"
         transform="matrix(0.16,0,0,-0.16,0,560)" /><path
         id="path45"
         d="m 1338,1553 v -26"
         style="fill:none;stroke:#000000;stroke-width:9;stroke-linecap:round;stroke-linejoin:round;stroke-miterlimit:10;stroke-dasharray:none;stroke-opacity:1"
         transform="matrix(0.16,0,0,-0.16,0,560)" /><path
         id="path46"
         d="m 1338,1490 v -37"
         style="fill:none;stroke:#000000;stroke-width:9;stroke-linecap:round;stroke-linejoin:round;stroke-miterlimit:10;stroke-dasharray:none;stroke-opacity:1"
         transform="matrix(0.16,0,0,-0.16,0,560)" /><path
         id="path47"
         d="m 1338,1416 v -36"
         style="fill:none;stroke:#000000;stroke-width:9;stroke-linecap:round;stroke-linejoin:round;stroke-miterlimit:10;stroke-dasharray:none;stroke-opacity:1"
         transform="matrix(0.16,0,0,-0.16,0,560)" /><path
         id="path48"
         d="m 1338,1343 v -37"
         style="fill:none;stroke:#000000;stroke-width:9;stroke-linecap:round;stroke-linejoin:round;stroke-miterlimit:10;stroke-dasharray:none;stroke-opacity:1"
         transform="matrix(0.16,0,0,-0.16,0,560)" /><path
         id="path49"
         d="m 1338,1269 v -37"
         style="fill:none;stroke:#000000;stroke-width:9;stroke-linecap:round;stroke-linejoin:round;stroke-miterlimit:10;stroke-dasharray:none;stroke-opacity:1"
         transform="matrix(0.16,0,0,-0.16,0,560)" /><path
         id="path50"
         d="m 1338,1196 v -37"
         style="fill:none;stroke:#000000;stroke-width:9;stroke-linecap:round;stroke-linejoin:round;stroke-miterlimit:10;stroke-dasharray:none;stroke-opacity:1"
         transform="matrix(0.16,0,0,-0.16,0,560)" /><path
         id="path51"
         d="m 1338,1122 v -37"
         style="fill:none;stroke:#000000;stroke-width:9;stroke-linecap:round;stroke-linejoin:round;stroke-miterlimit:10;stroke-dasharray:none;stroke-opacity:1"
         transform="matrix(0.16,0,0,-0.16,0,560)" /><path
         id="path52"
         d="m 1338,1048 v -25"
         style="fill:none;stroke:#000000;stroke-width:9;stroke-linecap:round;stroke-linejoin:round;stroke-miterlimit:10;stroke-dasharray:none;stroke-opacity:1"
         transform="matrix(0.16,0,0,-0.16,0,560)" /><path
         id="path53"
         d="m 1132,1506 v -36"
         style="fill:none;stroke:#000000;stroke-width:9;stroke-linecap:round;stroke-linejoin:round;stroke-miterlimit:10;stroke-dasharray:none;stroke-opacity:1"
         transform="matrix(0.16,0,0,-0.16,0,560)" /><path
         id="path54"
         d="m 1132,1433 v -36"
         style="fill:none;stroke:#000000;stroke-width:9;stroke-linecap:round;stroke-linejoin:round;stroke-miterlimit:10;stroke-dasharray:none;stroke-opacity:1"
         transform="matrix(0.16,0,0,-0.16,0,560)" /><path
         id="path55"
         d="m 1132,1360 v -37"
         style="fill:none;stroke:#000000;stroke-width:9;stroke-linecap:round;stroke-linejoin:round;stroke-miterlimit:10;stroke-dasharray:none;stroke-opacity:1"
         transform="matrix(0.16,0,0,-0.16,0,560)" /><path
         id="path56"
         d="m 1132,1286 v -37"
         style="fill:none;stroke:#000000;stroke-width:9;stroke-linecap:round;stroke-linejoin:round;stroke-miterlimit:10;stroke-dasharray:none;stroke-opacity:1"
         transform="matrix(0.16,0,0,-0.16,0,560)" /><path
         id="path57"
         d="m 1132,1213 v -37"
         style="fill:none;stroke:#000000;stroke-width:9;stroke-linecap:round;stroke-linejoin:round;stroke-miterlimit:10;stroke-dasharray:none;stroke-opacity:1"
         transform="matrix(0.16,0,0,-0.16,0,560)" /><path
         id="path58"
         d="m 1132,1139 v -37"
         style="fill:none;stroke:#000000;stroke-width:9;stroke-linecap:round;stroke-linejoin:round;stroke-miterlimit:10;stroke-dasharray:none;stroke-opacity:1"
         transform="matrix(0.16,0,0,-0.16,0,560)" /><path
         id="path59"
         d="m 1132,1065 v -35"
         style="fill:none;stroke:#000000;stroke-width:9;stroke-linecap:round;stroke-linejoin:round;stroke-miterlimit:10;stroke-dasharray:none;stroke-opacity:1"
         transform="matrix(0.16,0,0,-0.16,0,560)" /><path
         id="path60"
         d="m 1545,1523 v -34"
         style="fill:none;stroke:#000000;stroke-width:9;stroke-linecap:round;stroke-linejoin:round;stroke-miterlimit:10;stroke-dasharray:none;stroke-opacity:1"
         transform="matrix(0.16,0,0,-0.16,0,560)" /><path
         id="path61"
         d="m 1545,1452 v -36"
         style="fill:none;stroke:#000000;stroke-width:9;stroke-linecap:round;stroke-linejoin:round;stroke-miterlimit:10;stroke-dasharray:none;stroke-opacity:1"
         transform="matrix(0.16,0,0,-0.16,0,560)" /><path
         id="path62"
         d="m 1545,1379 v -37"
         style="fill:none;stroke:#000000;stroke-width:9;stroke-linecap:round;stroke-linejoin:round;stroke-miterlimit:10;stroke-dasharray:none;stroke-opacity:1"
         transform="matrix(0.16,0,0,-0.16,0,560)" /><path
         id="path63"
         d="m 1545,1305 v -37"
         style="fill:none;stroke:#000000;stroke-width:9;stroke-linecap:round;stroke-linejoin:round;stroke-miterlimit:10;stroke-dasharray:none;stroke-opacity:1"
         transform="matrix(0.16,0,0,-0.16,0,560)" /><path
         id="path64"
         d="m 1545,1231 v -36"
         style="fill:none;stroke:#000000;stroke-width:9;stroke-linecap:round;stroke-linejoin:round;stroke-miterlimit:10;stroke-dasharray:none;stroke-opacity:1"
         transform="matrix(0.16,0,0,-0.16,0,560)" /><path
         id="path65"
         d="m 1545,1158 v -37"
         style="fill:none;stroke:#000000;stroke-width:9;stroke-linecap:round;stroke-linejoin:round;stroke-miterlimit:10;stroke-dasharray:none;stroke-opacity:1"
         transform="matrix(0.16,0,0,-0.16,0,560)" /><path
         id="path66"
         d="m 1545,1084 v -33"
         style="fill:none;stroke:#000000;stroke-width:9;stroke-linecap:round;stroke-linejoin:round;stroke-miterlimit:10;stroke-dasharray:none;stroke-opacity:1"
         transform="matrix(0.16,0,0,-0.16,0,560)" /><path
         id="path67"
         d="m 1751,1534 v -46"
         style="fill:none;stroke:#000000;stroke-width:9;stroke-linecap:round;stroke-linejoin:round;stroke-miterlimit:10;stroke-dasharray:none;stroke-opacity:1"
         transform="matrix(0.16,0,0,-0.16,0,560)" /><path
         id="path68"
         d="m 1751,1451 v -36"
         style="fill:none;stroke:#000000;stroke-width:9;stroke-linecap:round;stroke-linejoin:round;stroke-miterlimit:10;stroke-dasharray:none;stroke-opacity:1"
         transform="matrix(0.16,0,0,-0.16,0,560)" /><path
         id="path69"
         d="m 1751,1378 v -37"
         style="fill:none;stroke:#000000;stroke-width:9;stroke-linecap:round;stroke-linejoin:round;stroke-miterlimit:10;stroke-dasharray:none;stroke-opacity:1"
         transform="matrix(0.16,0,0,-0.16,0,560)" /><path
         id="path70"
         d="m 1751,1304 v -37"
         style="fill:none;stroke:#000000;stroke-width:9;stroke-linecap:round;stroke-linejoin:round;stroke-miterlimit:10;stroke-dasharray:none;stroke-opacity:1"
         transform="matrix(0.16,0,0,-0.16,0,560)" /><path
         id="path71"
         d="m 1751,1231 v -37"
         style="fill:none;stroke:#000000;stroke-width:9;stroke-linecap:round;stroke-linejoin:round;stroke-miterlimit:10;stroke-dasharray:none;stroke-opacity:1"
         transform="matrix(0.16,0,0,-0.16,0,560)" /><path
         id="path72"
         d="m 1751,1157 v -45"
         style="fill:none;stroke:#000000;stroke-width:9;stroke-linecap:round;stroke-linejoin:round;stroke-miterlimit:10;stroke-dasharray:none;stroke-opacity:1"
         transform="matrix(0.16,0,0,-0.16,0,560)" /></g></g></svg>
